REM DIRINDEX 1\2\4\18,1\2\4\19,1\2\5\20,1\2\5\21,1\2\6\22,1\2\7\23,1\2\8\24,1\2\8\25,1\2\9\26,1\2\10\27,1\3\11\28,1\3\11\29,1\3\11\30,1\3\11\31,1\3\12\32,1\3\12\33,1\3\12\34,1\3\12\35,1\3\13\36,1\3\13\37,1\3\14\38,1\3\14\39,1\3\15\40,1\3\15\41,1\3\15\42,1\3\16\43,1\3\16\44,1\3\17\45,1\3\17\46
REM DIRNAME folder01,folder02,folder03,folder04,folder05,folder06,folder07,folder08,folder09,folder10,folder11,folder12,folder13,folder14,folder15,folder16,folder17,folder18,folder19,folder20,folder21,folder22,folder23,folder24,folder25,folder26,folder27,folder28,folder29,folder30,folder31,folder32,folder33,folder34,folder35,folder36,folder37,folder38,folder39,folder40,folder41,folder42,folder43,folder44,folder45,folder46
TITLE ""
FILE "03.mp3" MP3
  TRACK 01 AUDIO
    TITLE "0:"
    INDEX 01 00:00:00
  TRACK 02 AUDIO
    TITLE "18:cjc023_0401"
    INDEX 01 00:00:13
  TRACK 03 AUDIO
    TITLE "0:"
    INDEX 01 00:01:38
  TRACK 04 AUDIO
    TITLE "19:cjc023_0402"
    INDEX 01 00:01:56
  TRACK 05 AUDIO
    TITLE "0:"
    INDEX 01 00:03:45
  TRACK 06 AUDIO
    TITLE "18:cjc023_0403"
    INDEX 01 00:04:40
  TRACK 07 AUDIO
    TITLE "0:"
    INDEX 01 00:05:73
  TRACK 08 AUDIO
    TITLE "19:cjc023_0404"
    INDEX 01 00:06:20
  TRACK 09 AUDIO
    TITLE "0:"
    INDEX 01 00:08:07
  TRACK 10 AUDIO
    TITLE "18:cjc023_0405"
    INDEX 01 00:09:06
  TRACK 11 AUDIO
    TITLE "0:"
    INDEX 01 00:10:37
  TRACK 12 AUDIO
    TITLE "19:cjc023_0406"
    INDEX 01 00:10:63
  TRACK 13 AUDIO
    TITLE "0:"
    INDEX 01 00:13:71
  TRACK 14 AUDIO
    TITLE "18:cjc023_0407"
    INDEX 01 00:14:70
  TRACK 15 AUDIO
    TITLE "0:"
    INDEX 01 00:16:04
  TRACK 16 AUDIO
    TITLE "19:cjc023_0408"
    INDEX 01 00:16:28
  TRACK 17 AUDIO
    TITLE "0:"
    INDEX 01 00:19:38
  TRACK 18 AUDIO
    TITLE "18:cjc023_0409"
    INDEX 01 00:20:37
  TRACK 19 AUDIO
    TITLE "0:"
    INDEX 01 00:21:33
  TRACK 20 AUDIO
    TITLE "19:cjc023_0410"
    INDEX 01 00:21:64
  TRACK 21 AUDIO
    TITLE "0:"
    INDEX 01 00:23:40
  TRACK 22 AUDIO
    TITLE "18:cjc023_0411"
    INDEX 01 00:24:39
  TRACK 23 AUDIO
    TITLE "0:"
    INDEX 01 00:25:62
  TRACK 24 AUDIO
    TITLE "19:cjc023_0412"
    INDEX 01 00:26:11
  TRACK 25 AUDIO
    TITLE "0:"
    INDEX 01 00:28:37
  TRACK 26 AUDIO
    TITLE "18:cjc023_0413"
    INDEX 01 00:29:36
  TRACK 27 AUDIO
    TITLE "0:"
    INDEX 01 00:30:55
  TRACK 28 AUDIO
    TITLE "19:cjc023_0414"
    INDEX 01 00:31:00
  TRACK 29 AUDIO
    TITLE "0:"
    INDEX 01 00:32:68
  TRACK 30 AUDIO
    TITLE "18:cjc023_0415"
    INDEX 01 00:33:68
  TRACK 31 AUDIO
    TITLE "0:"
    INDEX 01 00:35:02
  TRACK 32 AUDIO
    TITLE "19:cjc023_0416"
    INDEX 01 00:35:25
  TRACK 33 AUDIO
    TITLE "0:"
    INDEX 01 00:38:02
  TRACK 34 AUDIO
    TITLE "18:cjc023_0417"
    INDEX 01 00:39:00
  TRACK 35 AUDIO
    TITLE "0:"
    INDEX 01 00:40:05
  TRACK 36 AUDIO
    TITLE "19:cjc023_0418"
    INDEX 01 00:40:28
  TRACK 37 AUDIO
    TITLE "0:"
    INDEX 01 00:42:47
  TRACK 38 AUDIO
    TITLE "18:cjc023_0419"
    INDEX 01 00:43:46
  TRACK 39 AUDIO
    TITLE "0:"
    INDEX 01 00:44:54
  TRACK 40 AUDIO
    TITLE "19:cjc023_0420"
    INDEX 01 00:45:02
  TRACK 41 AUDIO
    TITLE "0:"
    INDEX 01 00:46:56
  TRACK 42 AUDIO
    TITLE "18:cjc023_0421"
    INDEX 01 00:47:54
  TRACK 43 AUDIO
    TITLE "0:"
    INDEX 01 00:49:10
  TRACK 44 AUDIO
    TITLE "19:cjc023_0422"
    INDEX 01 00:49:33
  TRACK 45 AUDIO
    TITLE "0:"
    INDEX 01 00:51:22
  TRACK 46 AUDIO
    TITLE "18:cjc023_0423"
    INDEX 01 00:52:18
  TRACK 47 AUDIO
    TITLE "0:"
    INDEX 01 00:53:37
  TRACK 48 AUDIO
    TITLE "19:cjc023_0424"
    INDEX 01 00:53:62
  TRACK 49 AUDIO
    TITLE "0:"
    INDEX 01 00:56:04
  TRACK 50 AUDIO
    TITLE "18:cjc023_0425"
    INDEX 01 00:57:03
  TRACK 51 AUDIO
    TITLE "0:"
    INDEX 01 00:58:13
  TRACK 52 AUDIO
    TITLE "19:cjc023_0426"
    INDEX 01 00:58:36
  TRACK 53 AUDIO
    TITLE "0:"
    INDEX 01 01:00:43
  TRACK 54 AUDIO
    TITLE "18:cjc023_0427"
    INDEX 01 01:01:42
  TRACK 55 AUDIO
    TITLE "0:"
    INDEX 01 01:02:73
  TRACK 56 AUDIO
    TITLE "19:cjc023_0428"
    INDEX 01 01:03:22
  TRACK 57 AUDIO
    TITLE "0:"
    INDEX 01 01:05:36
  TRACK 58 AUDIO
    TITLE "18:cjc023_0429"
    INDEX 01 01:06:30
  TRACK 59 AUDIO
    TITLE "0:"
    INDEX 01 01:07:41
  TRACK 60 AUDIO
    TITLE "19:cjc023_0430"
    INDEX 01 01:07:63
  TRACK 61 AUDIO
    TITLE "0:"
    INDEX 01 01:10:51
  TRACK 62 AUDIO
    TITLE "18:cjc023_0431"
    INDEX 01 01:11:51
  TRACK 63 AUDIO
    TITLE "0:"
    INDEX 01 01:12:48
  TRACK 64 AUDIO
    TITLE "19:cjc023_0432"
    INDEX 01 01:12:70
  TRACK 65 AUDIO
    TITLE "0:"
    INDEX 01 01:14:59
  TRACK 66 AUDIO
    TITLE "18:cjc023_0433"
    INDEX 01 01:15:56
  TRACK 67 AUDIO
    TITLE "0:"
    INDEX 01 01:16:56
  TRACK 68 AUDIO
    TITLE "19:cjc023_0434"
    INDEX 01 01:17:02
  TRACK 69 AUDIO
    TITLE "0:"
    INDEX 01 01:19:28
  TRACK 70 AUDIO
    TITLE "18:cjc023_0435"
    INDEX 01 01:20:28
  TRACK 71 AUDIO
    TITLE "0:"
    INDEX 01 01:21:31
  TRACK 72 AUDIO
    TITLE "19:cjc023_0436"
    INDEX 01 01:21:53
  TRACK 73 AUDIO
    TITLE "0:"
    INDEX 01 01:23:24
  TRACK 74 AUDIO
    TITLE "18:cjc023_0437"
    INDEX 01 01:24:22
  TRACK 75 AUDIO
    TITLE "0:"
    INDEX 01 01:25:29
  TRACK 76 AUDIO
    TITLE "19:cjc023_0438"
    INDEX 01 01:25:49
  TRACK 77 AUDIO
    TITLE "0:"
    INDEX 01 01:27:14
  TRACK 78 AUDIO
    TITLE "18:cjc023_0439"
    INDEX 01 01:28:16
  TRACK 79 AUDIO
    TITLE "0:"
    INDEX 01 01:29:15
  TRACK 80 AUDIO
    TITLE "19:cjc023_0440"
    INDEX 01 01:29:39
  TRACK 81 AUDIO
    TITLE "0:"
    INDEX 01 01:31:06
  TRACK 82 AUDIO
    TITLE "18:cjc023_0441"
    INDEX 01 01:32:00
  TRACK 83 AUDIO
    TITLE "0:"
    INDEX 01 01:33:23
  TRACK 84 AUDIO
    TITLE "19:cjc023_0442"
    INDEX 01 01:33:46
  TRACK 85 AUDIO
    TITLE "0:"
    INDEX 01 01:35:22
  TRACK 86 AUDIO
    TITLE "18:cjc023_0443"
    INDEX 01 01:36:23
  TRACK 87 AUDIO
    TITLE "0:"
    INDEX 01 01:37:26
  TRACK 88 AUDIO
    TITLE "19:cjc023_0444"
    INDEX 01 01:37:54
  TRACK 89 AUDIO
    TITLE "0:"
    INDEX 01 01:39:25
  TRACK 90 AUDIO
    TITLE "18:cjc023_0445"
    INDEX 01 01:40:23
  TRACK 91 AUDIO
    TITLE "0:"
    INDEX 01 01:41:34
  TRACK 92 AUDIO
    TITLE "19:cjc023_0446"
    INDEX 01 01:41:57
  TRACK 93 AUDIO
    TITLE "0:"
    INDEX 01 01:43:62
  TRACK 94 AUDIO
    TITLE "18:cjc023_0447"
    INDEX 01 01:44:62
  TRACK 95 AUDIO
    TITLE "0:"
    INDEX 01 01:46:02
  TRACK 96 AUDIO
    TITLE "19:cjc023_0448"
    INDEX 01 01:46:27
  TRACK 97 AUDIO
    TITLE "0:"
    INDEX 01 01:48:48
  TRACK 98 AUDIO
    TITLE "18:cjc023_0449"
    INDEX 01 01:49:47
  TRACK 99 AUDIO
    TITLE "0:"
    INDEX 01 01:50:60
  TRACK 100 AUDIO
    TITLE "19:cjc023_0450"
    INDEX 01 01:51:07
  TRACK 101 AUDIO
    TITLE "0:"
    INDEX 01 01:53:43
  TRACK 102 AUDIO
    TITLE "18:cjc023_0451"
    INDEX 01 01:54:41
  TRACK 103 AUDIO
    TITLE "0:"
    INDEX 01 01:55:69
  TRACK 104 AUDIO
    TITLE "19:cjc023_0452"
    INDEX 01 01:56:16
  TRACK 105 AUDIO
    TITLE "0:"
    INDEX 01 01:59:28
  TRACK 106 AUDIO
    TITLE "18:cjc023_0453"
    INDEX 01 02:00:25
  TRACK 107 AUDIO
    TITLE "0:"
    INDEX 01 02:01:43
  TRACK 108 AUDIO
    TITLE "19:cjc023_0454"
    INDEX 01 02:01:66
  TRACK 109 AUDIO
    TITLE "0:"
    INDEX 01 02:04:00
  TRACK 110 AUDIO
    TITLE "18:cjc023_0455"
    INDEX 01 02:05:01
  TRACK 111 AUDIO
    TITLE "0:"
    INDEX 01 02:06:08
  TRACK 112 AUDIO
    TITLE "19:cjc023_0456"
    INDEX 01 02:06:30
  TRACK 113 AUDIO
    TITLE "0:"
    INDEX 01 02:08:39
  TRACK 114 AUDIO
    TITLE "18:cjc023_0457"
    INDEX 01 02:09:38
  TRACK 115 AUDIO
    TITLE "0:"
    INDEX 01 02:10:57
  TRACK 116 AUDIO
    TITLE "19:cjc023_0458"
    INDEX 01 02:11:06
  TRACK 117 AUDIO
    TITLE "0:"
    INDEX 01 02:12:58
  TRACK 118 AUDIO
    TITLE "18:cjc023_0459"
    INDEX 01 02:13:57
  TRACK 119 AUDIO
    TITLE "0:"
    INDEX 01 02:14:67
  TRACK 120 AUDIO
    TITLE "19:cjc023_0460"
    INDEX 01 02:15:17
  TRACK 121 AUDIO
    TITLE "0:"
    INDEX 01 02:17:20
  TRACK 122 AUDIO
    TITLE "18:cjc023_0461"
    INDEX 01 02:18:23
  TRACK 123 AUDIO
    TITLE "0:"
    INDEX 01 02:19:40
  TRACK 124 AUDIO
    TITLE "19:cjc023_0462"
    INDEX 01 02:19:60
  TRACK 125 AUDIO
    TITLE "0:"
    INDEX 01 02:21:51
  TRACK 126 AUDIO
    TITLE "18:cjc023_0463"
    INDEX 01 02:22:47
  TRACK 127 AUDIO
    TITLE "0:"
    INDEX 01 02:23:50
  TRACK 128 AUDIO
    TITLE "19:cjc023_0464"
    INDEX 01 02:23:74
  TRACK 129 AUDIO
    TITLE "0:"
    INDEX 01 02:25:53
  TRACK 130 AUDIO
    TITLE "18:cjc023_0465"
    INDEX 01 02:26:50
  TRACK 131 AUDIO
    TITLE "0:"
    INDEX 01 02:27:46
  TRACK 132 AUDIO
    TITLE "19:cjc023_0466"
    INDEX 01 02:27:65
  TRACK 133 AUDIO
    TITLE "0:"
    INDEX 01 02:29:64
  TRACK 134 AUDIO
    TITLE "18:cjc023_0467"
    INDEX 01 02:30:68
  TRACK 135 AUDIO
    TITLE "0:"
    INDEX 01 02:31:59
  TRACK 136 AUDIO
    TITLE "19:cjc023_0468"
    INDEX 01 02:32:06
  TRACK 137 AUDIO
    TITLE "0:"
    INDEX 01 02:33:52
  TRACK 138 AUDIO
    TITLE "18:cjc023_0469"
    INDEX 01 02:34:56
  TRACK 139 AUDIO
    TITLE "0:"
    INDEX 01 02:36:10
  TRACK 140 AUDIO
    TITLE "19:cjc023_0470"
    INDEX 01 02:36:31
  TRACK 141 AUDIO
    TITLE "0:"
    INDEX 01 02:38:28
  TRACK 142 AUDIO
    TITLE "18:cjc023_0471"
    INDEX 01 02:39:26
  TRACK 143 AUDIO
    TITLE "0:"
    INDEX 01 02:40:27
  TRACK 144 AUDIO
    TITLE "19:cjc023_0472"
    INDEX 01 02:40:54
  TRACK 145 AUDIO
    TITLE "0:"
    INDEX 01 02:43:21
  TRACK 146 AUDIO
    TITLE "18:cjc023_0473"
    INDEX 01 02:44:17
  TRACK 147 AUDIO
    TITLE "0:"
    INDEX 01 02:45:30
  TRACK 148 AUDIO
    TITLE "19:cjc023_0474"
    INDEX 01 02:45:54
  TRACK 149 AUDIO
    TITLE "0:"
    INDEX 01 02:48:62
  TRACK 150 AUDIO
    TITLE "18:cjc023_0475"
    INDEX 01 02:49:57
  TRACK 151 AUDIO
    TITLE "0:"
    INDEX 01 02:50:70
  TRACK 152 AUDIO
    TITLE "19:cjc023_0476"
    INDEX 01 02:51:17
  TRACK 153 AUDIO
    TITLE "0:"
    INDEX 01 02:53:59
  TRACK 154 AUDIO
    TITLE "18:cjc023_0477"
    INDEX 01 02:54:54
  TRACK 155 AUDIO
    TITLE "0:"
    INDEX 01 02:56:08
  TRACK 156 AUDIO
    TITLE "19:cjc023_0478"
    INDEX 01 02:56:28
  TRACK 157 AUDIO
    TITLE "0:"
    INDEX 01 02:58:33
  TRACK 158 AUDIO
    TITLE "18:cjc023_0479"
    INDEX 01 02:59:30
  TRACK 159 AUDIO
    TITLE "0:"
    INDEX 01 03:00:65
  TRACK 160 AUDIO
    TITLE "19:cjc023_0480"
    INDEX 01 03:01:13
  TRACK 161 AUDIO
    TITLE "0:"
    INDEX 01 03:03:28
  TRACK 162 AUDIO
    TITLE "18:cjc023_0481"
    INDEX 01 03:04:25
  TRACK 163 AUDIO
    TITLE "0:"
    INDEX 01 03:05:54
  TRACK 164 AUDIO
    TITLE "19:cjc023_0482"
    INDEX 01 03:06:05
  TRACK 165 AUDIO
    TITLE "0:"
    INDEX 01 03:08:00
  TRACK 166 AUDIO
    TITLE "18:cjc023_0483"
    INDEX 01 03:08:72
  TRACK 167 AUDIO
    TITLE "0:"
    INDEX 01 03:10:05
  TRACK 168 AUDIO
    TITLE "19:cjc023_0484"
    INDEX 01 03:10:30
  TRACK 169 AUDIO
    TITLE "0:"
    INDEX 01 03:13:32
  TRACK 170 AUDIO
    TITLE "18:cjc023_0485"
    INDEX 01 03:14:30
  TRACK 171 AUDIO
    TITLE "0:"
    INDEX 01 03:15:43
  TRACK 172 AUDIO
    TITLE "19:cjc023_0486"
    INDEX 01 03:15:68
  TRACK 173 AUDIO
    TITLE "0:"
    INDEX 01 03:18:14
  TRACK 174 AUDIO
    TITLE "18:cjc023_0487"
    INDEX 01 03:19:11
  TRACK 175 AUDIO
    TITLE "0:"
    INDEX 01 03:20:21
  TRACK 176 AUDIO
    TITLE "19:cjc023_0488"
    INDEX 01 03:20:40
  TRACK 177 AUDIO
    TITLE "0:"
    INDEX 01 03:23:23
  TRACK 178 AUDIO
    TITLE "18:cjc023_0489"
    INDEX 01 03:24:22
  TRACK 179 AUDIO
    TITLE "0:"
    INDEX 01 03:25:37
  TRACK 180 AUDIO
    TITLE "19:cjc023_0490"
    INDEX 01 03:25:59
  TRACK 181 AUDIO
    TITLE "0:"
    INDEX 01 03:28:40
  TRACK 182 AUDIO
    TITLE "18:cjc023_0491"
    INDEX 01 03:29:37
  TRACK 183 AUDIO
    TITLE "0:"
    INDEX 01 03:30:50
  TRACK 184 AUDIO
    TITLE "19:cjc023_0492"
    INDEX 01 03:30:72
  TRACK 185 AUDIO
    TITLE "0:"
    INDEX 01 03:33:31
  TRACK 186 AUDIO
    TITLE "18:cjc023_0493"
    INDEX 01 03:34:29
  TRACK 187 AUDIO
    TITLE "0:"
    INDEX 01 03:35:50
  TRACK 188 AUDIO
    TITLE "19:cjc023_0494"
    INDEX 01 03:35:73
  TRACK 189 AUDIO
    TITLE "0:"
    INDEX 01 03:38:44
  TRACK 190 AUDIO
    TITLE "18:cjc023_0495"
    INDEX 01 03:39:43
  TRACK 191 AUDIO
    TITLE "0:"
    INDEX 01 03:41:03
  TRACK 192 AUDIO
    TITLE "19:cjc023_0496"
    INDEX 01 03:41:23
  TRACK 193 AUDIO
    TITLE "0:"
    INDEX 01 03:43:61
  TRACK 194 AUDIO
    TITLE "18:cjc023_0497"
    INDEX 01 03:44:58
  TRACK 195 AUDIO
    TITLE "0:"
    INDEX 01 03:45:71
  TRACK 196 AUDIO
    TITLE "19:cjc023_0498"
    INDEX 01 03:46:20
  TRACK 197 AUDIO
    TITLE "0:"
    INDEX 01 03:49:10
  TRACK 198 AUDIO
    TITLE "18:cjc023_0499"
    INDEX 01 03:50:10
  TRACK 199 AUDIO
    TITLE "0:"
    INDEX 01 03:51:23
  TRACK 200 AUDIO
    TITLE "19:cjc023_0500"
    INDEX 01 03:51:45
  TRACK 201 AUDIO
    TITLE "0:"
    INDEX 01 03:53:24
  TRACK 202 AUDIO
    TITLE "18:cjc023_0501"
    INDEX 01 03:54:23
  TRACK 203 AUDIO
    TITLE "0:"
    INDEX 01 03:55:40
  TRACK 204 AUDIO
    TITLE "19:cjc023_0502"
    INDEX 01 03:55:62
  TRACK 205 AUDIO
    TITLE "0:"
    INDEX 01 03:58:07
  TRACK 206 AUDIO
    TITLE "18:cjc023_0503"
    INDEX 01 03:59:05
  TRACK 207 AUDIO
    TITLE "0:"
    INDEX 01 04:00:16
  TRACK 208 AUDIO
    TITLE "19:cjc023_0504"
    INDEX 01 04:00:38
  TRACK 209 AUDIO
    TITLE "0:"
    INDEX 01 04:02:48
  TRACK 210 AUDIO
    TITLE "18:cjc023_0505"
    INDEX 01 04:03:46
  TRACK 211 AUDIO
    TITLE "0:"
    INDEX 01 04:04:65
  TRACK 212 AUDIO
    TITLE "19:cjc023_0506"
    INDEX 01 04:05:15
  TRACK 213 AUDIO
    TITLE "0:"
    INDEX 01 04:07:14
  TRACK 214 AUDIO
    TITLE "18:cjc023_0507"
    INDEX 01 04:08:10
  TRACK 215 AUDIO
    TITLE "0:"
    INDEX 01 04:09:46
  TRACK 216 AUDIO
    TITLE "19:cjc023_0508"
    INDEX 01 04:09:66
  TRACK 217 AUDIO
    TITLE "0:"
    INDEX 01 04:11:67
  TRACK 218 AUDIO
    TITLE "18:cjc023_0509"
    INDEX 01 04:12:62
  TRACK 219 AUDIO
    TITLE "0:"
    INDEX 01 04:14:12
  TRACK 220 AUDIO
    TITLE "19:cjc023_0510"
    INDEX 01 04:14:32
  TRACK 221 AUDIO
    TITLE "0:"
    INDEX 01 04:16:21
  TRACK 222 AUDIO
    TITLE "18:cjc023_0511"
    INDEX 01 04:17:15
  TRACK 223 AUDIO
    TITLE "0:"
    INDEX 01 04:18:51
  TRACK 224 AUDIO
    TITLE "19:cjc023_0512"
    INDEX 01 04:18:73
  TRACK 225 AUDIO
    TITLE "0:"
    INDEX 01 04:21:56
  TRACK 226 AUDIO
    TITLE "18:cjc023_0513"
    INDEX 01 04:22:53
  TRACK 227 AUDIO
    TITLE "0:"
    INDEX 01 04:23:66
  TRACK 228 AUDIO
    TITLE "19:cjc023_0514"
    INDEX 01 04:24:13
  TRACK 229 AUDIO
    TITLE "0:"
    INDEX 01 04:25:65
  TRACK 230 AUDIO
    TITLE "18:cjc023_0515"
    INDEX 01 04:26:61
  TRACK 231 AUDIO
    TITLE "0:"
    INDEX 01 04:28:01
  TRACK 232 AUDIO
    TITLE "19:cjc023_0516"
    INDEX 01 04:28:22
  TRACK 233 AUDIO
    TITLE "0:"
    INDEX 01 04:30:07
  TRACK 234 AUDIO
    TITLE "18:cjc023_0517"
    INDEX 01 04:31:03
  TRACK 235 AUDIO
    TITLE "0:"
    INDEX 01 04:32:22
  TRACK 236 AUDIO
    TITLE "19:cjc023_0518"
    INDEX 01 04:32:44
  TRACK 237 AUDIO
    TITLE "0:"
    INDEX 01 04:35:28
  TRACK 238 AUDIO
    TITLE "18:cjc023_0519"
    INDEX 01 04:36:26
  TRACK 239 AUDIO
    TITLE "0:"
    INDEX 01 04:37:27
  TRACK 240 AUDIO
    TITLE "19:cjc023_0520"
    INDEX 01 04:37:49
  TRACK 241 AUDIO
    TITLE "0:"
    INDEX 01 04:39:18
  TRACK 242 AUDIO
    TITLE "18:cjc023_0521"
    INDEX 01 04:40:16
  TRACK 243 AUDIO
    TITLE "0:"
    INDEX 01 04:41:41
  TRACK 244 AUDIO
    TITLE "19:cjc023_0522"
    INDEX 01 04:41:62
  TRACK 245 AUDIO
    TITLE "0:"
    INDEX 01 04:43:67
  TRACK 246 AUDIO
    TITLE "18:cjc023_0523"
    INDEX 01 04:44:64
  TRACK 247 AUDIO
    TITLE "0:"
    INDEX 01 04:46:20
  TRACK 248 AUDIO
    TITLE "19:cjc023_0524"
    INDEX 01 04:46:42
  TRACK 249 AUDIO
    TITLE "0:"
    INDEX 01 04:48:27
  TRACK 250 AUDIO
    TITLE "18:cjc023_0525"
    INDEX 01 04:49:28
  TRACK 251 AUDIO
    TITLE "0:"
    INDEX 01 04:50:43
  TRACK 252 AUDIO
    TITLE "19:cjc023_0526"
    INDEX 01 04:50:67
  TRACK 253 AUDIO
    TITLE "0:"
    INDEX 01 04:53:30
  TRACK 254 AUDIO
    TITLE "18:cjc023_0527"
    INDEX 01 04:54:28
  TRACK 255 AUDIO
    TITLE "0:"
    INDEX 01 04:55:41
  TRACK 256 AUDIO
    TITLE "19:cjc023_0528"
    INDEX 01 04:55:64
  TRACK 257 AUDIO
    TITLE "0:"
    INDEX 01 04:58:18
  TRACK 258 AUDIO
    TITLE "18:cjc023_0529"
    INDEX 01 04:59:13
  TRACK 259 AUDIO
    TITLE "0:"
    INDEX 01 05:00:20
  TRACK 260 AUDIO
    TITLE "19:cjc023_0530"
    INDEX 01 05:00:46
  TRACK 261 AUDIO
    TITLE "0:"
    INDEX 01 05:03:25
  TRACK 262 AUDIO
    TITLE "18:cjc023_0531"
    INDEX 01 05:04:24
  TRACK 263 AUDIO
    TITLE "0:"
    INDEX 01 05:05:35
  TRACK 264 AUDIO
    TITLE "19:cjc023_0532"
    INDEX 01 05:05:55
  TRACK 265 AUDIO
    TITLE "0:"
    INDEX 01 05:09:31
  TRACK 266 AUDIO
    TITLE "18:cjc023_0533"
    INDEX 01 05:10:29
  TRACK 267 AUDIO
    TITLE "0:"
    INDEX 01 05:11:65
  TRACK 268 AUDIO
    TITLE "19:cjc023_0534"
    INDEX 01 05:12:10
  TRACK 269 AUDIO
    TITLE "0:"
    INDEX 01 05:14:48
  TRACK 270 AUDIO
    TITLE "18:cjc023_0535"
    INDEX 01 05:15:45
  TRACK 271 AUDIO
    TITLE "0:"
    INDEX 01 05:16:66
  TRACK 272 AUDIO
    TITLE "19:cjc023_0536"
    INDEX 01 05:17:13
  TRACK 273 AUDIO
    TITLE "0:"
    INDEX 01 05:19:12
  TRACK 274 AUDIO
    TITLE "18:cjc023_0537"
    INDEX 01 05:20:09
  TRACK 275 AUDIO
    TITLE "0:"
    INDEX 01 05:21:36
  TRACK 276 AUDIO
    TITLE "19:cjc023_0538"
    INDEX 01 05:21:58
  TRACK 277 AUDIO
    TITLE "0:"
    INDEX 01 05:23:19
  TRACK 278 AUDIO
    TITLE "18:cjc023_0539"
    INDEX 01 05:24:21
  TRACK 279 AUDIO
    TITLE "0:"
    INDEX 01 05:25:30
  TRACK 280 AUDIO
    TITLE "19:cjc023_0540"
    INDEX 01 05:25:56
  TRACK 281 AUDIO
    TITLE "0:"
    INDEX 01 05:28:09
  TRACK 282 AUDIO
    TITLE "18:cjc023_0541"
    INDEX 01 05:29:08
  TRACK 283 AUDIO
    TITLE "0:"
    INDEX 01 05:30:31
  TRACK 284 AUDIO
    TITLE "19:cjc023_0542"
    INDEX 01 05:30:53
  TRACK 285 AUDIO
    TITLE "0:"
    INDEX 01 05:33:22
  TRACK 286 AUDIO
    TITLE "18:cjc023_0543"
    INDEX 01 05:34:19
  TRACK 287 AUDIO
    TITLE "0:"
    INDEX 01 05:35:13
  TRACK 288 AUDIO
    TITLE "19:cjc023_0544"
    INDEX 01 05:35:40
  TRACK 289 AUDIO
    TITLE "0:"
    INDEX 01 05:37:23
  TRACK 290 AUDIO
    TITLE "18:cjc023_0545"
    INDEX 01 05:38:21
  TRACK 291 AUDIO
    TITLE "0:"
    INDEX 01 05:39:40
  TRACK 292 AUDIO
    TITLE "19:cjc023_0546"
    INDEX 01 05:39:65
  TRACK 293 AUDIO
    TITLE "0:"
    INDEX 01 05:41:58
  TRACK 294 AUDIO
    TITLE "18:cjc023_0547"
    INDEX 01 05:42:52
  TRACK 295 AUDIO
    TITLE "0:"
    INDEX 01 05:43:73
  TRACK 296 AUDIO
    TITLE "19:cjc023_0548"
    INDEX 01 05:44:20
  TRACK 297 AUDIO
    TITLE "0:"
    INDEX 01 05:46:01
  TRACK 298 AUDIO
    TITLE "18:cjc023_0549"
    INDEX 01 05:46:73
  TRACK 299 AUDIO
    TITLE "0:"
    INDEX 01 05:48:12
  TRACK 300 AUDIO
    TITLE "19:cjc023_0550"
    INDEX 01 05:48:37
  TRACK 301 AUDIO
    TITLE "0:"
    INDEX 01 05:50:54
  TRACK 302 AUDIO
    TITLE "18:cjc023_0551"
    INDEX 01 05:51:51
  TRACK 303 AUDIO
    TITLE "0:"
    INDEX 01 05:52:62
  TRACK 304 AUDIO
    TITLE "19:cjc023_0552"
    INDEX 01 05:53:07
  TRACK 305 AUDIO
    TITLE "0:"
    INDEX 01 05:55:25
  TRACK 306 AUDIO
    TITLE "18:cjc023_0553"
    INDEX 01 05:56:21
  TRACK 307 AUDIO
    TITLE "0:"
    INDEX 01 05:57:38
  TRACK 308 AUDIO
    TITLE "19:cjc023_0554"
    INDEX 01 05:57:59
  TRACK 309 AUDIO
    TITLE "0:"
    INDEX 01 05:59:51
  TRACK 310 AUDIO
    TITLE "18:cjc023_0555"
    INDEX 01 06:00:46
  TRACK 311 AUDIO
    TITLE "0:"
    INDEX 01 06:01:61
  TRACK 312 AUDIO
    TITLE "19:cjc023_0556"
    INDEX 01 06:02:08
  TRACK 313 AUDIO
    TITLE "0:"
    INDEX 01 06:04:28
  TRACK 314 AUDIO
    TITLE "18:cjc023_0557"
    INDEX 01 06:05:28
  TRACK 315 AUDIO
    TITLE "0:"
    INDEX 01 06:06:47
  TRACK 316 AUDIO
    TITLE "19:cjc023_0558"
    INDEX 01 06:06:68
  TRACK 317 AUDIO
    TITLE "0:"
    INDEX 01 06:09:65
  TRACK 318 AUDIO
    TITLE "18:cjc023_0559"
    INDEX 01 06:10:60
  TRACK 319 AUDIO
    TITLE "0:"
    INDEX 01 06:11:54
  TRACK 320 AUDIO
    TITLE "19:cjc023_0560"
    INDEX 01 06:12:00
  TRACK 321 AUDIO
    TITLE "0:"
    INDEX 01 06:13:60
  TRACK 322 AUDIO
    TITLE "18:cjc023_0561"
    INDEX 01 06:14:56
  TRACK 323 AUDIO
    TITLE "0:"
    INDEX 01 06:15:67
  TRACK 324 AUDIO
    TITLE "19:cjc023_0562"
    INDEX 01 06:16:16
  TRACK 325 AUDIO
    TITLE "0:"
    INDEX 01 06:18:34
  TRACK 326 AUDIO
    TITLE "18:cjc023_0563"
    INDEX 01 06:19:32
  TRACK 327 AUDIO
    TITLE "0:"
    INDEX 01 06:20:39
  TRACK 328 AUDIO
    TITLE "19:cjc023_0564"
    INDEX 01 06:20:64
  TRACK 329 AUDIO
    TITLE "0:"
    INDEX 01 06:23:29
  TRACK 330 AUDIO
    TITLE "18:cjc023_0565"
    INDEX 01 06:24:23
  TRACK 331 AUDIO
    TITLE "0:"
    INDEX 01 06:25:44
  TRACK 332 AUDIO
    TITLE "19:cjc023_0566"
    INDEX 01 06:25:71
  TRACK 333 AUDIO
    TITLE "0:"
    INDEX 01 06:28:48
  TRACK 334 AUDIO
    TITLE "18:cjc023_0567"
    INDEX 01 06:29:46
  TRACK 335 AUDIO
    TITLE "0:"
    INDEX 01 06:30:71
  TRACK 336 AUDIO
    TITLE "19:cjc023_0568"
    INDEX 01 06:31:21
  TRACK 337 AUDIO
    TITLE "0:"
    INDEX 01 06:33:20
  TRACK 338 AUDIO
    TITLE "18:cjc023_0569"
    INDEX 01 06:34:18
  TRACK 339 AUDIO
    TITLE "0:"
    INDEX 01 06:35:40
  TRACK 340 AUDIO
    TITLE "19:cjc023_0570"
    INDEX 01 06:35:68
  TRACK 341 AUDIO
    TITLE "0:"
    INDEX 01 06:38:53
  TRACK 342 AUDIO
    TITLE "18:cjc023_0571"
    INDEX 01 06:39:48
  TRACK 343 AUDIO
    TITLE "0:"
    INDEX 01 06:41:00
  TRACK 344 AUDIO
    TITLE "19:cjc023_0572"
    INDEX 01 06:41:25
  TRACK 345 AUDIO
    TITLE "0:"
    INDEX 01 06:43:65
  TRACK 346 AUDIO
    TITLE "18:cjc023_0573"
    INDEX 01 06:44:61
  TRACK 347 AUDIO
    TITLE "0:"
    INDEX 01 06:45:64
  TRACK 348 AUDIO
    TITLE "19:cjc023_0574"
    INDEX 01 06:46:13
  TRACK 349 AUDIO
    TITLE "0:"
    INDEX 01 06:48:25
  TRACK 350 AUDIO
    TITLE "18:cjc023_0575"
    INDEX 01 06:49:23
  TRACK 351 AUDIO
    TITLE "0:"
    INDEX 01 06:50:26
  TRACK 352 AUDIO
    TITLE "19:cjc023_0576"
    INDEX 01 06:50:48
  TRACK 353 AUDIO
    TITLE "0:"
    INDEX 01 06:52:59
  TRACK 354 AUDIO
    TITLE "18:cjc023_0577"
    INDEX 01 06:53:56
  TRACK 355 AUDIO
    TITLE "0:"
    INDEX 01 06:54:63
  TRACK 356 AUDIO
    TITLE "19:cjc023_0578"
    INDEX 01 06:55:12
  TRACK 357 AUDIO
    TITLE "0:"
    INDEX 01 06:57:64
  TRACK 358 AUDIO
    TITLE "18:cjc023_0579"
    INDEX 01 06:58:61
  TRACK 359 AUDIO
    TITLE "0:"
    INDEX 01 06:59:61
  TRACK 360 AUDIO
    TITLE "19:cjc023_0580"
    INDEX 01 07:00:11
  TRACK 361 AUDIO
    TITLE "0:"
    INDEX 01 07:02:28
  TRACK 362 AUDIO
    TITLE "18:cjc023_0581"
    INDEX 01 07:03:25
  TRACK 363 AUDIO
    TITLE "0:"
    INDEX 01 07:04:28
  TRACK 364 AUDIO
    TITLE "19:cjc023_0582"
    INDEX 01 07:04:50
  TRACK 365 AUDIO
    TITLE "0:"
    INDEX 01 07:07:15
  TRACK 366 AUDIO
    TITLE "18:cjc023_0583"
    INDEX 01 07:08:18
  TRACK 367 AUDIO
    TITLE "0:"
    INDEX 01 07:09:35
  TRACK 368 AUDIO
    TITLE "19:cjc023_0584"
    INDEX 01 07:09:57
  TRACK 369 AUDIO
    TITLE "0:"
    INDEX 01 07:11:64
  TRACK 370 AUDIO
    TITLE "18:cjc023_0585"
    INDEX 01 07:12:59
  TRACK 371 AUDIO
    TITLE "0:"
    INDEX 01 07:14:01
  TRACK 372 AUDIO
    TITLE "19:cjc023_0586"
    INDEX 01 07:14:23
  TRACK 373 AUDIO
    TITLE "0:"
    INDEX 01 07:17:02
  TRACK 374 AUDIO
    TITLE "18:cjc023_0587"
    INDEX 01 07:17:72
  TRACK 375 AUDIO
    TITLE "0:"
    INDEX 01 07:19:16
  TRACK 376 AUDIO
    TITLE "19:cjc023_0588"
    INDEX 01 07:19:36
  TRACK 377 AUDIO
    TITLE "0:"
    INDEX 01 07:21:64
  TRACK 378 AUDIO
    TITLE "18:cjc023_0589"
    INDEX 01 07:22:60
  TRACK 379 AUDIO
    TITLE "0:"
    INDEX 01 07:23:71
  TRACK 380 AUDIO
    TITLE "19:cjc023_0590"
    INDEX 01 07:24:17
  TRACK 381 AUDIO
    TITLE "0:"
    INDEX 01 07:27:20
  TRACK 382 AUDIO
    TITLE "18:cjc023_0591"
    INDEX 01 07:28:15
  TRACK 383 AUDIO
    TITLE "0:"
    INDEX 01 07:29:38
  TRACK 384 AUDIO
    TITLE "19:cjc023_0592"
    INDEX 01 07:29:58
  TRACK 385 AUDIO
    TITLE "0:"
    INDEX 01 07:32:35
  TRACK 386 AUDIO
    TITLE "18:cjc023_0593"
    INDEX 01 07:33:28
  TRACK 387 AUDIO
    TITLE "0:"
    INDEX 01 07:34:35
  TRACK 388 AUDIO
    TITLE "19:cjc023_0594"
    INDEX 01 07:34:55
  TRACK 389 AUDIO
    TITLE "0:"
    INDEX 01 07:37:16
  TRACK 390 AUDIO
    TITLE "18:cjc023_0595"
    INDEX 01 07:38:12
  TRACK 391 AUDIO
    TITLE "0:"
    INDEX 01 07:39:35
  TRACK 392 AUDIO
    TITLE "19:cjc023_0596"
    INDEX 01 07:39:54
  TRACK 393 AUDIO
    TITLE "0:"
    INDEX 01 07:41:59
  TRACK 394 AUDIO
    TITLE "18:cjc023_0597"
    INDEX 01 07:42:54
  TRACK 395 AUDIO
    TITLE "0:"
    INDEX 01 07:43:66
  TRACK 396 AUDIO
    TITLE "19:cjc023_0598"
    INDEX 01 07:44:12
  TRACK 397 AUDIO
    TITLE "0:"
    INDEX 01 07:46:39
  TRACK 398 AUDIO
    TITLE "18:cjc023_0599"
    INDEX 01 07:47:36
  TRACK 399 AUDIO
    TITLE "0:"
    INDEX 01 07:48:53
  TRACK 400 AUDIO
    TITLE "19:cjc023_0600"
    INDEX 01 07:49:04
  TRACK 401 AUDIO
    TITLE "0:"
    INDEX 01 07:51:10
